<svg width="22" height="22" viewBox="0 0 22 22" fill="none" xmlns="http://www.w3.org/2000/svg">
<path d="M18.558 16.8654C18.558 16.8578 18.5625 16.8513 18.5625 16.8438V1.71875C18.5625 1.44525 18.4538 1.18294 18.2605 0.989546C18.0671 0.796149 17.8048 0.6875 17.5312 0.6875H4.46875C4.19525 0.6875 3.93294 0.796149 3.73955 0.989546C3.54615 1.18294 3.4375 1.44525 3.4375 1.71875V20.2812C3.4375 20.5548 3.54615 20.8171 3.73955 21.0105C3.93294 21.2038 4.19525 21.3125 4.46875 21.3125H14.0938C14.1849 21.3123 14.2722 21.2761 14.3368 21.2118L18.4618 17.0868C18.4905 17.0576 18.5138 17.0235 18.5305 16.9861C18.5353 16.9754 18.5381 16.9648 18.5419 16.9538C18.5513 16.9252 18.5568 16.8955 18.558 16.8654ZM4.125 20.2812V1.71875C4.125 1.62758 4.16122 1.54015 4.22568 1.47568C4.29015 1.41122 4.37758 1.375 4.46875 1.375H17.5312C17.6224 1.375 17.7099 1.41122 17.7743 1.47568C17.8388 1.54015 17.875 1.62758 17.875 1.71875V16.5H14.7812C14.5077 16.5 14.2454 16.6087 14.052 16.802C13.8587 16.9954 13.75 17.2577 13.75 17.5312V20.625H4.46875C4.37758 20.625 4.29015 20.5888 4.22568 20.5243C4.16122 20.4599 4.125 20.3724 4.125 20.2812ZM14.4375 20.1389V17.5312C14.4375 17.4401 14.4737 17.3526 14.5382 17.2882C14.6026 17.2237 14.6901 17.1875 14.7812 17.1875H17.3889L14.4375 20.1389Z" fill="#7F56D9"/>
<path d="M7.90625 7.5625H6.53125C6.44008 7.5625 6.35265 7.52628 6.28818 7.46182C6.22372 7.39735 6.1875 7.30992 6.1875 7.21875C6.1875 7.12758 6.15128 7.04015 6.08682 6.97568C6.02235 6.91122 5.93492 6.875 5.84375 6.875C5.75258 6.875 5.66515 6.91122 5.60068 6.97568C5.53622 7.04015 5.5 7.12758 5.5 7.21875C5.5 7.49225 5.60865 7.75456 5.80205 7.94795C5.99544 8.14135 6.25775 8.25 6.53125 8.25H6.875V8.59375C6.875 8.68492 6.91122 8.77235 6.97568 8.83682C7.04015 8.90128 7.12758 8.9375 7.21875 8.9375C7.30992 8.9375 7.39735 8.90128 7.46182 8.83682C7.52628 8.77235 7.5625 8.68492 7.5625 8.59375V8.25H7.90625C8.17975 8.25 8.44206 8.14135 8.63545 7.94795C8.82885 7.75456 8.9375 7.49225 8.9375 7.21875V6.53125C8.9375 6.25775 8.82885 5.99544 8.63545 5.80205C8.44206 5.60865 8.17975 5.5 7.90625 5.5H6.53125C6.44008 5.5 6.35265 5.46378 6.28818 5.39932C6.22372 5.33485 6.1875 5.24742 6.1875 5.15625V4.46875C6.1875 4.37758 6.22372 4.29015 6.28818 4.22568C6.35265 4.16122 6.44008 4.125 6.53125 4.125H7.90625C7.99742 4.125 8.08485 4.16122 8.14932 4.22568C8.21378 4.29015 8.25 4.37758 8.25 4.46875C8.25 4.55992 8.28622 4.64735 8.35068 4.71182C8.41515 4.77628 8.50258 4.8125 8.59375 4.8125C8.68492 4.8125 8.77235 4.77628 8.83682 4.71182C8.90128 4.64735 8.9375 4.55992 8.9375 4.46875C8.9375 4.19525 8.82885 3.93294 8.63545 3.73955C8.44206 3.54615 8.17975 3.4375 7.90625 3.4375H7.5625V3.09375C7.5625 3.00258 7.52628 2.91515 7.46182 2.85068C7.39735 2.78622 7.30992 2.75 7.21875 2.75C7.12758 2.75 7.04015 2.78622 6.97568 2.85068C6.91122 2.91515 6.875 3.00258 6.875 3.09375V3.4375H6.53125C6.25775 3.4375 5.99544 3.54615 5.80205 3.73955C5.60865 3.93294 5.5 4.19525 5.5 4.46875V5.15625C5.5 5.42975 5.60865 5.69206 5.80205 5.88545C5.99544 6.07885 6.25775 6.1875 6.53125 6.1875H7.90625C7.99742 6.1875 8.08485 6.22372 8.14932 6.28818C8.21378 6.35265 8.25 6.44008 8.25 6.53125V7.21875C8.25 7.30992 8.21378 7.39735 8.14932 7.46182C8.08485 7.52628 7.99742 7.5625 7.90625 7.5625ZM10.6562 4.46875H16.1562C16.2474 4.46875 16.3349 4.43253 16.3993 4.36807C16.4638 4.3036 16.5 4.21617 16.5 4.125C16.5 4.03383 16.4638 3.9464 16.3993 3.88193C16.3349 3.81747 16.2474 3.78125 16.1562 3.78125H10.6562C10.5651 3.78125 10.4776 3.81747 10.4132 3.88193C10.3487 3.9464 10.3125 4.03383 10.3125 4.125C10.3125 4.21617 10.3487 4.3036 10.4132 4.36807C10.4776 4.43253 10.5651 4.46875 10.6562 4.46875ZM10.6562 7.21875H16.1562C16.2474 7.21875 16.3349 7.18253 16.3993 7.11807C16.4638 7.0536 16.5 6.96617 16.5 6.875C16.5 6.78383 16.4638 6.6964 16.3993 6.63193C16.3349 6.56747 16.2474 6.53125 16.1562 6.53125H10.6562C10.5651 6.53125 10.4776 6.56747 10.4132 6.63193C10.3487 6.6964 10.3125 6.78383 10.3125 6.875C10.3125 6.96617 10.3487 7.0536 10.4132 7.11807C10.4776 7.18253 10.5651 7.21875 10.6562 7.21875ZM10.6562 9.96875H16.1562C16.2474 9.96875 16.3349 9.93253 16.3993 9.86807C16.4638 9.8036 16.5 9.71617 16.5 9.625C16.5 9.53383 16.4638 9.4464 16.3993 9.38193C16.3349 9.31747 16.2474 9.28125 16.1562 9.28125H10.6562C10.5651 9.28125 10.4776 9.31747 10.4132 9.38193C10.3487 9.4464 10.3125 9.53383 10.3125 9.625C10.3125 9.71617 10.3487 9.8036 10.4132 9.86807C10.4776 9.93253 10.5651 9.96875 10.6562 9.96875ZM5.84375 12.7188H16.1562C16.2474 12.7188 16.3349 12.6825 16.3993 12.6181C16.4638 12.5536 16.5 12.4662 16.5 12.375C16.5 12.2838 16.4638 12.1964 16.3993 12.1319C16.3349 12.0675 16.2474 12.0312 16.1562 12.0312H5.84375C5.75258 12.0312 5.66515 12.0675 5.60068 12.1319C5.53622 12.1964 5.5 12.2838 5.5 12.375C5.5 12.4662 5.53622 12.5536 5.60068 12.6181C5.66515 12.6825 5.75258 12.7188 5.84375 12.7188ZM16.1562 15.4688C16.2474 15.4688 16.3349 15.4325 16.3993 15.3681C16.4638 15.3036 16.5 15.2162 16.5 15.125C16.5 15.0338 16.4638 14.9464 16.3993 14.8819C16.3349 14.8175 16.2474 14.7812 16.1562 14.7812H5.84375C5.75258 14.7812 5.66515 14.8175 5.60068 14.8819C5.53622 14.9464 5.5 15.0338 5.5 15.125C5.5 15.2162 5.53622 15.3036 5.60068 15.3681C5.66515 15.4325 5.75258 15.4688 5.84375 15.4688H16.1562Z" fill="#7F56D9"/>
</svg>
